<svg>
    <symbol id="icon-books" viewBox="0 0 1147 1024">
        <path d="M224.01024 128l-192 0c-17.59232 0-32.01024 14.39744-32.01024 32.01024l0 704c0 17.59232 14.39744 32.01024 32.01024 32.01024l192 0c17.59232 0 32.01024-14.39744 32.01024-32.01024l0-704c0-17.59232-14.39744-32.01024-32.01024-32.01024zM192 320l-128 0 0-64 128 0 0 64z"></path>
        <path d="M544.01024 128l-192 0c-17.59232 0-32.01024 14.39744-32.01024 32.01024l0 704c0 17.59232 14.39744 32.01024 32.01024 32.01024l192 0c17.59232 0 32.01024-14.39744 32.01024-32.01024l0-704c0-17.59232-14.39744-32.01024-32.01024-32.01024zM512 320l-128 0 0-64 128 0 0 64z"></path>
        <path d="M765.09184 177.47968l-171.45856 86.38464c-15.70816 7.92576-22.09792 27.25888-14.17216 42.96704l287.96928 571.55584c7.92576 15.70816 27.25888 22.09792 42.96704 14.17216l171.45856-86.38464c15.70816-7.92576 22.09792-27.25888 14.17216-42.96704l-287.96928-571.55584c-7.92576-15.70816-27.25888-22.09792-42.96704-14.17216z"></path>
        <path d="M928.01024 864.01024c0 17.67424-14.336 32.01024-32.01024 32.01024s-32.01024-14.336-32.01024-32.01024c0-17.67424 14.336-32.01024 32.01024-32.01024s32.01024 14.336 32.01024 32.01024z"></path>
    </symbol>
    <symbol id="icon-list1f" viewBox="0 0 1024 1024">
        <path d="M1024 128.284c0 17.673-14.327 32-32 32L32 160.284c-17.673 0-32-14.327-32-32l0 0c0-17.673 14.327-32 32-32l960 0C1009.674 96.284 1024 110.612 1024 128.284L1024 128.284z"></path>
        <path d="M1024 512.284c0 17.673-14.327 32-32 32L32 544.284c-17.673 0-32-14.327-32-32l0 0c0-17.673 14.327-32 32-32l960 0C1009.674 480.284 1024 494.612 1024 512.284L1024 512.284z"></path>
        <path d="M1024 896.284c0 17.673-14.327 32-32 32L32 928.284c-17.673 0-32-14.327-32-32l0 0c0-17.673 14.327-32 32-32l960 0C1009.674 864.284 1024 878.612 1024 896.284L1024 896.284z"></path>
    </symbol>
    <symbol id="icon-book" viewBox="0 0 1024 1024">
        <path d="M738.765677 77.985142c-83.705424 1.221828-180.64936 23.165606-223.696782 76.603679-43.046399-53.438073-139.989311-75.382874-223.694735-76.603679-74.565253-1.086751-205.053166 19.72832-205.053166 93.205798l0 689.724751c0 41.181935 33.384341 74.565253 74.566276 74.565253 0 0 69.127404-37.282115 140.823306-37.282115 77.228919 0 157.434635 37.282115 157.434635 37.282115 22.278399 0 42.260499-9.781784 55.923684-25.270547 13.663184 15.488763 33.646308 25.270547 55.923684 25.270547 0 0 80.207763-37.282115 157.434635-37.282115 71.697949 0 140.825352 37.282115 140.825352 37.282115 41.181935 0 74.565253-33.382295 74.565253-74.565253L943.81782 171.190941C943.81782 97.713462 813.328883 76.898391 738.765677 77.985142zM496.42835 860.915691c0 20.590967-16.691147 37.282115-37.282115 37.282115 0 0-85.458347-37.282115-155.844417-37.282115-78.320787 0-142.413524 37.282115-142.413524 37.282115-20.590967 0-37.282115-16.691147-37.282115-37.282115L123.606179 171.190941c0-22.956851 43.49563-57.820893 167.769005-55.923684 72.133877 1.102101 158.977781 22.86373 205.053166 74.565253L496.42835 860.915691zM906.534681 860.915691c0 20.590967-16.691147 37.282115-37.282115 37.282115 0 0-64.09376-37.282115-142.413524-37.282115-70.385047 0-155.846464 37.282115-155.846464 37.282115-20.588921 0-37.282115-16.691147-37.282115-37.282115L533.710464 189.83251c46.077432-51.701522 132.921335-73.463152 205.055213-74.565253 124.273375-1.89721 167.769005 32.966832 167.769005 55.923684L906.534681 860.915691z"></path>
    </symbol>
    <symbol id="icon-search" viewBox="0 0 1024 1024">
        <path d="M953.504 908.256l-152.608-163.296c61.856-74.496 95.872-167.36 95.872-265.12 0-229.344-186.624-415.968-416.032-415.968-229.344 0-415.968 186.592-415.968 415.968s186.624 415.968 416 415.968c60.096-0.032 118.048-12.576 172.224-37.248 16.096-7.328 23.2-26.304 15.872-42.368-7.328-16.128-26.4-23.264-42.368-15.872-45.856 20.864-94.88 31.456-145.76 31.488-194.08 0-351.968-157.888-351.968-351.968 0-194.048 157.888-351.968 351.968-351.968 194.112 0 352.032 157.888 352.032 351.968 0 91.36-34.848 177.92-98.08 243.744-12.256 12.736-11.84 32.992 0.864 45.248 0.96 0.928 2.208 1.28 3.296 2.08 0.864 1.28 1.312 2.752 2.4 3.904l165.504 177.088c6.272 6.752 14.816 10.144 23.36 10.144 7.84 0 15.68-2.848 21.856-8.64C964.864 941.408 965.568 921.152 953.504 908.256z"></path>
    </symbol>
    <symbol id="icon-color" viewBox="0 0 1024 1024">
        <path d="M954.756963 291.473421c-3.610224-3.684926-8.04114-5.583159-13.167904-5.641487-12.515035-0.141216-26.508747 10.942213-36.035728 20.255323L564.640917 637.263935c-12.500709 12.228509-58.515718 86.965677-60.468187 90.143043l-7.451716 12.121062 12.135388-7.42818c3.217275-1.967818 78.963423-48.373731 91.437525-60.569494l340.91139-331.177702C956.35639 325.537238 967.876772 304.916595 954.756963 291.473421L954.756963 291.473421z"></path>
        <path d="M741.987045 394.4784c0 27.608801-22.407336 50.015114-50.015114 50.015114-27.612894 0-50.021254-22.406313-50.021254-50.015114 0-27.609825 22.408359-50.018184 50.021254-50.018184C719.579709 344.460216 741.987045 366.868575 741.987045 394.4784L741.987045 394.4784z"></path>
        <path d="M216.811977 569.531298c-27.609825 0-50.016137-22.403243-50.016137-50.012044 0-27.611871 22.406313-50.02023 50.016137-50.02023 27.607778 0 50.01716 22.408359 50.01716 50.02023C266.829138 547.128055 244.419755 569.531298 216.811977 569.531298L216.811977 569.531298z"></path>
        <path d="M291.837718 394.4784c0-27.609825 22.408359-50.018184 50.015114-50.018184 27.609825 0 50.018184 22.408359 50.018184 50.018184 0 27.608801-22.407336 50.015114-50.018184 50.015114C314.244031 444.493513 291.837718 422.11176 291.837718 394.4784L291.837718 394.4784z"></path>
        <path d="M466.895733 344.460216c0-27.608801 22.406313-50.015114 50.015114-50.015114 27.611871 0 50.019207 22.406313 50.019207 50.015114 0 27.608801-22.408359 50.018184-50.019207 50.018184C489.302045 394.4784 466.895733 372.093577 466.895733 344.460216L466.895733 344.460216z"></path>
        <path d="M853.740268 514.084475c-22.988574 148.966777-158.732188 299.942303-351.946724 299.942303-36.781718 0-75.998905-7.274684-107.597577-19.958564-33.607422-13.490246-48.850591-29.353538-51.907207-39.693024-1.594311-5.39794-3.092431-11.296277-4.679579-17.541515-4.649903-18.301831-9.921977-39.045271-20.252253-56.259328-18.375509-30.618345-44.814672-37.044708-63.760163-37.044708-7.166213 0-14.798031 0.913812-22.675442 2.711761-12.865006 2.935865-25.362644 4.423753-37.140898 4.423753-25.12319 0-67.463508-6.664793-68.765153-51.307549-6.590092-227.942479 180.734294-351.748203 369.297904-373.325637 13.33675-1.524726 27.602661-2.296299 42.402739-2.296299 53.123918 0 111.543446 10.000771 152.463414 26.099425 9.247618 3.637854 14.375405 6.016017 39.203884 18.184151 25.653263 12.570293 46.347584 30.432103 62.897515 47.642067l30.157857-53.074799c-18.026562-17.013489-40.333614-34.406624-67.102281-47.52541-24.889877-12.196787-31.893384-15.514345-43.565215-20.10592-47.339168-18.62315-114.03315-30.193673-174.053128-30.193673-17.026792 0-33.545 0.900509-49.102325 2.677992-115.513874 13.220093-220.687238 59.057047-296.142767 129.074727-85.507466 79.342046-128.872113 184.653557-125.405151 304.555367 1.004887 34.470069 15.117302 63.017242 40.810474 82.556251 22.38073 17.019629 52.43114 26.01449 86.903256 26.01449 16.186657 0 33.096792-1.985214 50.26787-5.903453 3.581572-0.817622 6.79373-1.232061 9.54847-1.232061 11.469216 0 16.989953 10.04375 26.852578 48.853661 1.653663 6.509251 3.364631 13.240559 5.281283 19.730367 9.43386 31.911804 39.343053 58.783825 86.494956 77.710896 38.318724 15.382339 85.544305 24.203238 129.566938 24.203238 54.104245 0 106.473987-10.134825 155.659199-30.123065 46.24116-18.793018 88.50166-45.763276 125.606743-80.164784 35.744086-33.140795 65.270563-71.79107 87.756693-114.883517 22.526039-43.163055 36.888142-88.666412 42.691311-135.2688 0.261966-2.117221 0.508583-4.321422 0.731664-6.548136l0.148379-1.469468 0-0.057305c0.222057-2.336208 0.404206-4.694929 0.571005-7.064906L853.740268 514.084475 853.740268 514.084475z"></path>
    </symbol>
    <symbol id="icon-back_android" viewBox="0 0 1024 1024">
        <path d="M800 480H268.8l233.6-233.6c12.8-12.8 12.8-32 0-44.8-12.8-12.8-32-12.8-44.8 0l-284.8 288c-12.8 12.8-12.8 32 0 44.8h3.2l284.8 288c6.4 6.4 16 9.6 22.4 9.6 9.6 0 16-3.2 22.4-9.6 12.8-12.8 12.8-32 0-44.8L272 544H800c19.2 0 32-12.8 32-32s-16-32-32-32z"></path>
    </symbol>
    <symbol id="icon-setting" viewBox="0 0 1024 1024">
        <path d="M924.8 625.7l-65.5-56c3.1-19 4.7-38.4 4.7-57.8s-1.6-38.8-4.7-57.8l65.5-56c10.1-8.6 13.8-22.6 9.3-35.2l-0.9-2.6c-18.1-50.5-44.9-96.9-79.7-137.9l-1.8-2.1c-8.6-10.1-22.5-13.9-35.1-9.5l-81.3 28.9c-30-24.6-63.5-44-99.7-57.6l-15.7-85c-2.4-13.1-12.7-23.3-25.8-25.7l-2.7-0.5c-52.1-9.4-106.9-9.4-159 0l-2.7 0.5c-13.1 2.4-23.4 12.6-25.8 25.7l-15.8 85.4c-35.9 13.6-69.2 32.9-99 57.4l-81.9-29.1c-12.5-4.4-26.5-0.7-35.1 9.5l-1.8 2.1c-34.8 41.1-61.6 87.5-79.7 137.9l-0.9 2.6c-4.5 12.5-0.8 26.5 9.3 35.2l66.3 56.6c-3.1 18.8-4.6 38-4.6 57.1 0 19.2 1.5 38.4 4.6 57.1L99 625.5c-10.1 8.6-13.8 22.6-9.3 35.2l0.9 2.6c18.1 50.4 44.9 96.9 79.7 137.9l1.8 2.1c8.6 10.1 22.5 13.9 35.1 9.5l81.9-29.1c29.8 24.5 63.1 43.9 99 57.4l15.8 85.4c2.4 13.1 12.7 23.3 25.8 25.7l2.7 0.5c26.1 4.7 52.8 7.1 79.5 7.1 26.7 0 53.5-2.4 79.5-7.1l2.7-0.5c13.1-2.4 23.4-12.6 25.8-25.7l15.7-85c36.2-13.6 69.7-32.9 99.7-57.6l81.3 28.9c12.5 4.4 26.5 0.7 35.1-9.5l1.8-2.1c34.8-41.1 61.6-87.5 79.7-137.9l0.9-2.6c4.5-12.3 0.8-26.3-9.3-35zM788.3 465.9c2.5 15.1 3.8 30.6 3.8 46.1s-1.3 31-3.8 46.1l-6.6 40.1 74.7 63.9c-11.3 26.1-25.6 50.7-42.6 73.6L721 702.8l-31.4 25.8c-23.9 19.6-50.5 35-79.3 45.8l-38.1 14.3-17.9 97c-28.1 3.2-56.8 3.2-85 0l-17.9-97.2-37.8-14.5c-28.5-10.8-55-26.2-78.7-45.7l-31.4-25.9-93.4 33.2c-17-22.9-31.2-47.6-42.6-73.6l75.5-64.5-6.5-40c-2.4-14.9-3.7-30.3-3.7-45.5 0-15.3 1.2-30.6 3.7-45.5l6.5-40-75.5-64.5c11.3-26.1 25.6-50.7 42.6-73.6l93.4 33.2 31.4-25.9c23.7-19.5 50.2-34.9 78.7-45.7l37.9-14.3 17.9-97.2c28.1-3.2 56.8-3.2 85 0l17.9 97 38.1 14.3c28.7 10.8 55.4 26.2 79.3 45.8l31.4 25.8 92.8-32.9c17 22.9 31.2 47.6 42.6 73.6L781.8 426l6.5 39.9z"></path>
        <path d="M512 326c-97.2 0-176 78.8-176 176s78.8 176 176 176 176-78.8 176-176-78.8-176-176-176z m79.2 255.2C570 602.3 541.9 614 512 614c-29.9 0-58-11.7-79.2-32.8C411.7 560 400 531.9 400 502c0-29.9 11.7-58 32.8-79.2C454 401.6 482.1 390 512 390c29.9 0 58 11.6 79.2 32.8C612.3 444 624 472.1 624 502c0 29.9-11.7 58-32.8 79.2z"></path>
    </symbol>
    <symbol id="icon-replace_string" viewBox="0 0 1024 1024">
        <path d="M754.57812525 407.5419921L616.4580079 269.42187475l87.36328116-87.34130809 138.09814428 138.09814428-87.34130809 87.36328116z m-31.09130868 31.06933637L320.17871094 841.91943334H197.41748055l-15.33691389-15.33691389V703.82128906L585.38867153 300.51318342l138.09814505 138.09814505zM841.589844 731.72656215v109.86328185H402.13671893v-15.71044938L496.28955061 731.72656215H841.589844z" fill="#888888"></path>
    </symbol>
    <symbol id="icon-user" viewBox="0 0 1080 1024">
        <path d="M986.246752 935.07518c0 26.154359-22.742921 47.475847-50.77357 47.475847H95.577124c-27.518934 0-50.034425-20.468629-50.887285-45.997557l0.113715-1.762576a22.060633 22.060633 0 0 0-0.113715-1.990006c1.194003-190.926818 211.907163-345.97668 470.778456-345.976679 259.610439 0 470.778456 155.959578 470.778457 347.568684v0.682287zM263.021877 293.440533a252.787562 252.787562 0 0 1 252.446418-252.446419 252.787562 252.787562 0 0 1 252.446419 252.446419 252.730705 252.730705 0 0 1-252.446419 252.446419 252.730705 252.730705 0 0 1-252.446418-252.446419z m377.077623 264.613881c99.386563-47.020988 168.752471-147.544697 168.752471-264.613881A293.667962 293.667962 0 0 0 515.468295 0.113715a293.667962 293.667962 0 0 0-293.383675 293.326818c0 117.069184 69.422765 217.592893 168.866185 264.613881-222.08462 42.415547-387.198223 194.793115-387.198223 376.338479v0.682287c0 48.783565 41.221544 88.469961 91.824542 88.469962h839.896058c50.602998 0 91.710827-39.686396 91.710827-88.469962v-0.682287c0-181.545364-165.113604-333.922932-387.084509-376.338479z"></path>
    </symbol>
    <symbol id="icon-arrow_right_fat" viewBox="0 0 1024 1024">
        <path d="M761.856 405.504l-255.68-170.432A128 128 0 0 0 307.2 341.568v340.864a128 128 0 0 0 199.008 106.496l255.648-170.432a128 128 0 0 0 0-212.992z"></path>
    </symbol>

    <symbol id="icon-2zuixiaohua-2" viewBox="0 0 1024 1024">
        <path d="M923 571H130.7c-27.6 0-50-22.4-50-50s22.4-50 50-50H923c27.6 0 50 22.4 50 50s-22.4 50-50 50z" fill=""></path>
    </symbol>
    <symbol id="icon-3zuidahua-1" viewBox="0 0 1024 1024">
        <path d="M812.3 959.4H213.7c-81.6 0-148-66.4-148-148V212.9c0-81.6 66.4-148 148-148h598.5c81.6 0 148 66.4 148 148v598.5C960.3 893 893.9 959.4 812.3 959.4zM213.7 120.9c-50.7 0-92 41.3-92 92v598.5c0 50.7 41.3 92 92 92h598.5c50.7 0 92-41.3 92-92V212.9c0-50.7-41.3-92-92-92H213.7z" fill=""></path>
    </symbol>
    <symbol id="icon-4guanbi-2" viewBox="0 0 1024 1024">
        <path d="M109.9 935.8c-19.5-19.5-19.5-51.2 0-70.7l759.3-759.3c19.5-19.5 51.2-19.5 70.7 0s19.5 51.2 0 70.7L180.6 935.8c-19.6 19.6-51.2 19.6-70.7 0z" fill=""></path>
        <path d="M869.1 935.8L109.9 176.5c-19.5-19.5-19.5-51.2 0-70.7s51.2-19.5 70.7 0l759.3 759.3c19.5 19.5 19.5 51.2 0 70.7-19.6 19.6-51.2 19.6-70.8 0z" fill=""></path>
    </symbol>
    <symbol id="icon-shanchu" viewBox="0 0 1024 1024">
        <path d="M202.666667 256h-42.666667a32 32 0 0 1 0-64h704a32 32 0 0 1 0 64H266.666667v565.333333a53.333333 53.333333 0 0 0 53.333333 53.333334h384a53.333333 53.333333 0 0 0 53.333333-53.333334V352a32 32 0 0 1 64 0v469.333333c0 64.8-52.533333 117.333333-117.333333 117.333334H320c-64.8 0-117.333333-52.533333-117.333333-117.333334V256z m224-106.666667a32 32 0 0 1 0-64h170.666666a32 32 0 0 1 0 64H426.666667z m-32 288a32 32 0 0 1 64 0v256a32 32 0 0 1-64 0V437.333333z m170.666666 0a32 32 0 0 1 64 0v256a32 32 0 0 1-64 0V437.333333z"></path>
    </symbol>
    <symbol id="icon-daochu" viewBox="0 0 1024 1024">
        <path d="M909.5 671.4h-625c-17.7 0-32-14.3-32-32s14.3-32 32-32h625c17.7 0 32 14.3 32 32s-14.3 32-32 32z"></path>
        <path d="M904.8 662.7c-8.2 0-16.4-3.1-22.6-9.4l-225-225c-12.5-12.5-12.5-32.8 0-45.3s32.8-12.5 45.3 0l225 225c12.5 12.5 12.5 32.8 0 45.3-6.3 6.3-14.5 9.4-22.7 9.4z"></path>
        <path d="M679.5 905.2c-8.2 0-16.4-3.1-22.6-9.4-12.5-12.5-12.5-32.8 0-45.3l225-225c12.5-12.5 32.8-12.5 45.3 0s12.5 32.8 0 45.3l-225 225c-6.3 6.3-14.5 9.4-22.7 9.4z"></path>
        <path d="M448.2 958.3H229.7c-89.3 0-162-72.7-162-162V228.2c0-89.3 72.7-162 162-162h568.1c89.3 0 162 72.7 162 162v208.1c0 17.7-14.3 32-32 32s-32-14.3-32-32V228.2c0-54-44-98-98-98H229.7c-54 0-98 44-98 98v568.1c0 54 44 98 98 98h218.5c17.7 0 32 14.3 32 32s-14.3 32-32 32z"></path>
    </symbol>
    <symbol id="icon-daoru" viewBox="0 0 1024 1024">
        <path d="M926.4 637.7H299c-17.7 0-32-14.3-32-32s14.3-32 32-32h627.4c17.7 0 32 14.3 32 32s-14.3 32-32 32z"></path>
        <path d="M529.6 872.2c-8.2 0-16.4-3.1-22.6-9.4L281.2 637c-12.5-12.5-12.5-32.8 0-45.3s32.8-12.5 45.3 0l225.8 225.8c12.5 12.5 12.5 32.8 0 45.3-6.3 6.3-14.5 9.4-22.7 9.4z"></path>
        <path d="M304.1 628.8c-8.2 0-16.4-3.1-22.6-9.4-12.5-12.5-12.5-32.8 0-45.3l225.8-225.8c12.5-12.5 32.8-12.5 45.3 0s12.5 32.8 0 45.3L326.7 619.4c-6.2 6.3-14.4 9.4-22.6 9.4z"></path>
        <path d="M447.6 958.3H229.1c-89.3 0-162-72.7-162-162V228.2c0-89.3 72.7-162 162-162h568.1c89.3 0 162 72.7 162 162v208.1c0 17.7-14.3 32-32 32s-32-14.3-32-32V228.2c0-54-44-98-98-98H229.1c-54 0-98 44-98 98v568.1c0 54 44 98 98 98h218.5c17.7 0 32 14.3 32 32s-14.3 32-32 32z"></path>
    </symbol>
    <symbol id="icon-qingchu" viewBox="0 0 1024 1024">
        <path d="M752.3 91.3l-34.7-16.8c-26.1-12.6-57.5-1.7-70.1 24.5L531.8 338.4l-6.9-3.4c-64.1-30.9-141.1-4.1-172 60l-10 20.7 375.2 181.2 10-20.7c30.9-64.1 4.1-141.1-60-172l-6.9-3.3 115.6-239.4c12.6-26.2 1.7-57.6-24.5-70.2zM702 630L326.3 448.6c-22.9 30-52.5 63.8-90.1 97.4-57.5 51.4-114.5 85.3-159.6 107.4 13.1 41.4 40.8 61.3 60.3 82.3 7.2 7.8 118.3-112.3 126.3-104.6 8 7.7-87 143.1-78.3 150.6 25.9 22.2 55 43.4 86.7 63.3 6.5 4.1 145.1-185 151.3-181.6 12.4 6.8-87.9 217.4-74.8 223.7 13 6.3 26.1 12.2 39.1 17.7 45.1 19 89.9 33 132.8 42.2 13.1 2.8 82-234.4 94.6-232.5 12.7 1.9-30.8 242.9-18.7 243.9 36.5 3 70.6 1.9 100.9-3.3-10.5-54.4-18.2-124.6-12.5-205.8 3.2-44.5 9.9-84.5 17.7-119.3z"></path>
    </symbol>
    <symbol id="icon-run" viewBox="0 0 1024 1024">
        <path d="M924.8 337.6a449.344 449.344 0 1 0-828.288 348.8 449.344 449.344 0 0 0 828.288-348.8z m-149.76 437.376A371.968 371.968 0 1 1 883.968 512a369.536 369.536 0 0 1-109.056 263.04z m-64.768-302.08l-233.28-178.56a48 48 0 0 0-77.184 38.08v357.184a48 48 0 0 0 77.184 38.144l233.28-178.624a48 48 0 0 0 0-76.224z"></path>
    </symbol>
    <symbol id="icon-edit" viewBox="0 0 1024 1024">
        <path d="M413.8 253.4c23.1 0 41.9-18.7 41.9-41.9s-18.7-41.9-41.9-41.9-41.8 18.8-41.8 41.9 18.7 41.9 41.8 41.9z m0-55.8c7.7 0 14 6.3 14 14s-6.3 14-14 14-14-6.3-14-14 6.3-14 14-14z m-223.2 55.8c23.1 0 41.9-18.7 41.9-41.9s-18.7-41.9-41.9-41.9-41.9 18.7-41.9 41.9 18.8 41.9 41.9 41.9z m0-55.8c7.7 0 14 6.3 14 14s-6.3 14-14 14-14-6.3-14-14 6.3-14 14-14z m111.6 55.8c23.1 0 41.9-18.7 41.9-41.9s-18.7-41.9-41.9-41.9-41.9 18.7-41.9 41.9 18.8 41.9 41.9 41.9z m0-55.8c7.7 0 14 6.3 14 14s-6.3 14-14 14-14-6.3-14-14 6.3-14 14-14zM930.1 72H92.9C77.5 72 65 84.5 65 99.9v837.2c0 15.4 12.5 27.9 27.9 27.9h837.2c15.4 0 27.9-12.5 27.9-27.9V99.9c0-15.4-12.5-27.9-27.9-27.9z m0 865.1H92.9v-586h837.2v586z m0-613.9H92.9V99.9h837.2v223.3zM171.5 654.1l142.1 142.1c5.5 5.5 14.3 5.5 19.8 0s5.5-14.3 0-19.8L191.3 634.3l142.1-142.1c5.5-5.5 5.5-14.3 0-19.8s-14.3-5.5-19.8 0L171.5 614.5l-19.8 19.8 19.8 19.8z m515.3 142.1c5.5 5.5 14.3 5.5 19.8 0l142.1-142.1 19.8-19.8-19.8-19.8-142.1-142.1c-5.5-5.5-14.3-5.5-19.8 0s-5.5 14.3 0 19.8l142.1 142.1-142.1 142.1c-5.5 5.5-5.5 14.4 0 19.8z m-299.3 33c6.7 3.9 15.3 1.6 19.1-5.1l211-365.5c3.9-6.7 1.6-15.3-5.1-19.1-6.7-3.9-15.3-1.6-19.1 5.1l-211 365.5c-3.9 6.7-1.6 15.2 5.1 19.1z"></path>
    </symbol>
    <symbol id="icon-add" viewBox="0 0 1024 1024">
        <path d="M512 936.915619c-234.672764 0-424.915619-190.243879-424.915619-424.915619S277.327236 87.083357 512 87.083357c234.676857 0 424.916643 190.243879 424.916643 424.915619S746.676857 936.915619 512 936.915619zM724.45781 469.50414 554.491767 469.50414 554.491767 299.546284l-84.983533 0 0 169.957857L299.54219 469.50414l0 84.99172 169.966043 0 0 169.966043 84.983533 0L554.491767 554.49586l169.966043 0L724.45781 469.50414z"></path>
    </symbol>
    <symbol id="icon-add1" viewBox="0 0 1024 1024">
        <path d="M512 42.666667c259.2 0 469.333333 210.133333 469.333333 469.333333s-210.133333 469.333333-469.333333 469.333333S42.666667 771.2 42.666667 512 252.8 42.666667 512 42.666667z m0 64C288.149333 106.666667 106.666667 288.149333 106.666667 512s181.482667 405.333333 405.333333 405.333333 405.333333-181.482667 405.333333-405.333333S735.850667 106.666667 512 106.666667z m34.133333 213.333333c4.693333 0 8.533333 3.84 8.533334 8.533333V469.333333h140.8c4.693333 0 8.533333 3.84 8.533333 8.533334v46.933333a8.533333 8.533333 0 0 1-8.533333 8.533333H554.666667v140.8a8.533333 8.533333 0 0 1-8.533334 8.533334h-46.933333a8.533333 8.533333 0 0 1-8.533333-8.533334V533.333333h-140.8a8.533333 8.533333 0 0 1-8.533334-8.533333v-46.933333c0-4.693333 3.84-8.533333 8.533334-8.533334H490.666667v-140.8c0-4.693333 3.84-8.533333 8.533333-8.533333h46.933333z" fill="#333333"></path>
    </symbol>
</svg>